{"asset":{"version":"2.0","generator":"gltfpack 1.2"},"extensionsUsed":["KHR_mesh_quantization","KHR_texture_transform","KHR_texture_basisu","EXT_texture_webp"],"extensionsRequired":["KHR_mesh_quantization","KHR_texture_basisu","EXT_texture_webp"],"buffers":[{"uri":"goblin_native.webp.bin","byteLength":97688}],"bufferViews":[{"buffer":0,"byteOffset":0,"byteLength":975},{"buffer":0,"byteOffset":976,"byteLength":10952,"byteStride":4,"target":34962},{"buffer":0,"byteOffset":11928,"byteLength":10952,"byteStride":4,"target":34962},{"buffer":0,"byteOffset":22880,"byteLength":10952,"byteStride":4,"target":34962},{"buffer":0,"byteOffset":33832,"byteLength":21904,"byteStride":8,"target":34962},{"buffer":0,"byteOffset":55736,"byteLength":10952,"byteStride":4,"target":34962},{"buffer":0,"byteOffset":66688,"byteLength":17472,"target":34963},{"buffer":0,"byteOffset":84160,"byteLength":768},{"buffer":0,"byteOffset":84928,"byteLength":552},{"buffer":0,"byteOffset":85480,"byteLength":7008},{"buffer":0,"byteOffset":92488,"byteLength":5200}],"accessors":[{"bufferView":1,"byteOffset":0,"componentType":5121,"count":2738,"type":"VEC4"},{"bufferView":2,"byteOffset":0,"componentType":5120,"count":2738,"type":"VEC3","normalized":true},{"bufferView":3,"byteOffset":0,"componentType":5121,"count":2738,"type":"VEC4","normalized":true},{"bufferView":4,"byteOffset":0,"componentType":5123,"count":2738,"type":"VEC3","min":[0,0,0],"max":[16383,5968,14991]},{"bufferView":5,"byteOffset":0,"componentType":5123,"count":2738,"type":"VEC2","normalized":true},{"bufferView":6,"byteOffset":0,"componentType":5123,"count":8736,"type":"SCALAR"},{"bufferView":7,"byteOffset":0,"componentType":5126,"count":12,"type":"MAT4"},{"bufferView":8,"byteOffset":0,"componentType":5126,"count":16,"type":"SCALAR","min":[0],"max":[0.5]},{"bufferView":9,"byteOffset":0,"componentType":5126,"count":16,"type":"VEC3"},{"bufferView":10,"byteOffset":0,"componentType":5122,"count":16,"type":"VEC4","normalized":true},{"bufferView":9,"byteOffset":192,"componentType":5126,"count":16,"type":"VEC3"},{"bufferView":10,"byteOffset":128,"componentType":5122,"count":16,"type":"VEC4","normalized":true},{"bufferView":9,"byteOffset":384,"componentType":5126,"count":16,"type":"VEC3"},{"bufferView":10,"byteOffset":256,"componentType":5122,"count":16,"type":"VEC4","normalized":true},{"bufferView":9,"byteOffset":576,"componentType":5126,"count":16,"type":"VEC3"},{"bufferView":10,"byteOffset":384,"componentType":5122,"count":16,"type":"VEC4","normalized":true},{"bufferView":8,"byteOffset":64,"componentType":5126,"count":20,"type":"SCALAR","min":[0],"max":[0.633333385]},{"bufferView":9,"byteOffset":768,"componentType":5126,"count":20,"type":"VEC3"},{"bufferView":10,"byteOffset":512,"componentType":5122,"count":20,"type":"VEC4","normalized":true},{"bufferView":9,"byteOffset":1008,"componentType":5126,"count":20,"type":"VEC3"},{"bufferView":10,"byteOffset":672,"componentType":5122,"count":20,"type":"VEC4","normalized":true},{"bufferView":9,"byteOffset":1248,"componentType":5126,"count":20,"type":"VEC3"},{"bufferView":10,"byteOffset":832,"componentType":5122,"count":20,"type":"VEC4","normalized":true},{"bufferView":9,"byteOffset":1488,"componentType":5126,"count":20,"type":"VEC3"},{"bufferView":10,"byteOffset":992,"componentType":5122,"count":20,"type":"VEC4","normalized":true},{"bufferView":9,"byteOffset":1728,"componentType":5126,"count":20,"type":"VEC3"},{"bufferView":10,"byteOffset":1152,"componentType":5122,"count":20,"type":"VEC4","normalized":true},{"bufferView":9,"byteOffset":1968,"componentType":5126,"count":20,"type":"VEC3"},{"bufferView":10,"byteOffset":1312,"componentType":5122,"count":20,"type":"VEC4","normalized":true},{"bufferView":8,"byteOffset":144,"componentType":5126,"count":8,"type":"SCALAR","min":[0],"max":[0.233333349]},{"bufferView":10,"byteOffset":1472,"componentType":5122,"count":8,"type":"VEC4","normalized":true},{"bufferView":9,"byteOffset":2208,"componentType":5126,"count":8,"type":"VEC3"},{"bufferView":8,"byteOffset":176,"componentType":5126,"count":1,"type":"SCALAR","min":[0],"max":[0]},{"bufferView":8,"byteOffset":180,"componentType":5126,"count":2,"type":"SCALAR","min":[0],"max":[3.33333349]},{"bufferView":9,"byteOffset":2304,"componentType":5126,"count":2,"type":"VEC3"},{"bufferView":9,"byteOffset":2328,"componentType":5126,"count":1,"type":"VEC3"},{"bufferView":9,"byteOffset":2340,"componentType":5126,"count":1,"type":"VEC3"},{"bufferView":8,"byteOffset":188,"componentType":5126,"count":9,"type":"SCALAR","min":[0],"max":[0.266666681]},{"bufferView":9,"byteOffset":2352,"componentType":5126,"count":9,"type":"VEC3"},{"bufferView":9,"byteOffset":2460,"componentType":5126,"count":9,"type":"VEC3"},{"bufferView":10,"byteOffset":1536,"componentType":5122,"count":9,"type":"VEC4","normalized":true},{"bufferView":10,"byteOffset":1608,"componentType":5122,"count":9,"type":"VEC4","normalized":true},{"bufferView":10,"byteOffset":1680,"componentType":5122,"count":9,"type":"VEC4","normalized":true},{"bufferView":8,"byteOffset":224,"componentType":5126,"count":21,"type":"SCALAR","min":[0],"max":[0.666666687]},{"bufferView":9,"byteOffset":2568,"componentType":5126,"count":21,"type":"VEC3"},{"bufferView":10,"byteOffset":1752,"componentType":5122,"count":21,"type":"VEC4","normalized":true},{"bufferView":9,"byteOffset":2820,"componentType":5126,"count":21,"type":"VEC3"},{"bufferView":10,"byteOffset":1920,"componentType":5122,"count":21,"type":"VEC4","normalized":true},{"bufferView":9,"byteOffset":3072,"componentType":5126,"count":21,"type":"VEC3"},{"bufferView":10,"byteOffset":2088,"componentType":5122,"count":21,"type":"VEC4","normalized":true},{"bufferView":9,"byteOffset":3324,"componentType":5126,"count":21,"type":"VEC3"},{"bufferView":10,"byteOffset":2256,"componentType":5122,"count":21,"type":"VEC4","normalized":true},{"bufferView":9,"byteOffset":3576,"componentType":5126,"count":21,"type":"VEC3"},{"bufferView":10,"byteOffset":2424,"componentType":5122,"count":21,"type":"VEC4","normalized":true},{"bufferView":9,"byteOffset":3828,"componentType":5126,"count":21,"type":"VEC3"},{"bufferView":10,"byteOffset":2592,"componentType":5122,"count":21,"type":"VEC4","normalized":true},{"bufferView":8,"byteOffset":308,"componentType":5126,"count":61,"type":"SCALAR","min":[0],"max":[2]},{"bufferView":9,"byteOffset":4080,"componentType":5126,"count":61,"type":"VEC3"},{"bufferView":10,"byteOffset":2760,"componentType":5122,"count":61,"type":"VEC4","normalized":true},{"bufferView":9,"byteOffset":4812,"componentType":5126,"count":61,"type":"VEC3"},{"bufferView":10,"byteOffset":3248,"componentType":5122,"count":61,"type":"VEC4","normalized":true},{"bufferView":9,"byteOffset":5544,"componentType":5126,"count":61,"type":"VEC3"},{"bufferView":10,"byteOffset":3736,"componentType":5122,"count":61,"type":"VEC4","normalized":true},{"bufferView":9,"byteOffset":6276,"componentType":5126,"count":61,"type":"VEC3"},{"bufferView":10,"byteOffset":4224,"componentType":5122,"count":61,"type":"VEC4","normalized":true},{"bufferView":10,"byteOffset":4712,"componentType":5122,"count":61,"type":"VEC4","normalized":true}],"samplers":[{}],"images":[{"name":"Atlas.png","bufferView":0,"mimeType":"image/ktx2"}],"textures":[{"sampler":0,"extensions":{"KHR_texture_basisu":{"source":0}}}],"materials":[{"name":"Atlas","pbrMetallicRoughness":{"baseColorTexture":{"index":0,"extensions":{"KHR_texture_transform":{"offset":[0.29474327,0.0141603723],"scale":[2.05567765,0.0976800993]}}},"metallicFactor":0.400000006}}],"meshes":[{"primitives":[{"attributes":{"JOINTS_0":0,"NORMAL":1,"WEIGHTS_0":2,"POSITION":3,"TEXCOORD_0":4},"indices":5,"material":0}]}],"skins":[{"joints":[3,4,5,6,7,8,9,10,11,12,13,14],"inverseBindMatrices":6,"skeleton":3}],"animations":[{"name":"Attack","samplers":[{"input":7,"output":8},{"input":7,"output":9},{"input":7,"output":10},{"input":7,"output":11},{"input":7,"output":12},{"input":7,"output":13},{"input":7,"output":14},{"input":7,"output":15}],"channels":[{"sampler":0,"target":{"node":8,"path":"translation"}},{"sampler":1,"target":{"node":8,"path":"rotation"}},{"sampler":2,"target":{"node":9,"path":"translation"}},{"sampler":3,"target":{"node":9,"path":"rotation"}},{"sampler":4,"target":{"node":11,"path":"translation"}},{"sampler":5,"target":{"node":11,"path":"rotation"}},{"sampler":6,"target":{"node":13,"path":"translation"}},{"sampler":7,"target":{"node":13,"path":"rotation"}}]},{"name":"Death","samplers":[{"input":16,"output":17},{"input":16,"output":18},{"input":16,"output":19},{"input":16,"output":20},{"input":16,"output":21},{"input":16,"output":22},{"input":16,"output":23},{"input":16,"output":24},{"input":16,"output":25},{"input":16,"output":26},{"input":16,"output":27},{"input":16,"output":28}],"channels":[{"sampler":0,"target":{"node":4,"path":"translation"}},{"sampler":1,"target":{"node":4,"path":"rotation"}},{"sampler":2,"target":{"node":6,"path":"translation"}},{"sampler":3,"target":{"node":6,"path":"rotation"}},{"sampler":4,"target":{"node":8,"path":"translation"}},{"sampler":5,"target":{"node":8,"path":"rotation"}},{"sampler":6,"target":{"node":9,"path":"translation"}},{"sampler":7,"target":{"node":9,"path":"rotation"}},{"sampler":8,"target":{"node":11,"path":"translation"}},{"sampler":9,"target":{"node":11,"path":"rotation"}},{"sampler":10,"target":{"node":13,"path":"translation"}},{"sampler":11,"target":{"node":13,"path":"rotation"}}]},{"name":"HitRecieve","samplers":[{"input":29,"output":30},{"input":29,"output":31}],"channels":[{"sampler":0,"target":{"node":8,"path":"rotation"}},{"sampler":1,"target":{"node":9,"path":"translation"}}]},{"name":"Idle","samplers":[{"input":33,"output":34},{"input":32,"output":35},{"input":32,"output":36}],"channels":[{"sampler":0,"target":{"node":9,"path":"translation"}},{"sampler":1,"target":{"node":11,"path":"translation"}},{"sampler":2,"target":{"node":13,"path":"translation"}}]},{"name":"Jump","samplers":[{"input":37,"output":38},{"input":37,"output":39},{"input":37,"output":40},{"input":37,"output":41},{"input":37,"output":42}],"channels":[{"sampler":0,"target":{"node":8,"path":"translation"}},{"sampler":1,"target":{"node":9,"path":"translation"}},{"sampler":2,"target":{"node":9,"path":"rotation"}},{"sampler":3,"target":{"node":11,"path":"rotation"}},{"sampler":4,"target":{"node":13,"path":"rotation"}}]},{"name":"Run","samplers":[{"input":43,"output":44},{"input":43,"output":45},{"input":43,"output":46},{"input":43,"output":47},{"input":43,"output":48},{"input":43,"output":49},{"input":43,"output":50},{"input":43,"output":51},{"input":43,"output":52},{"input":43,"output":53},{"input":43,"output":54},{"input":43,"output":55}],"channels":[{"sampler":0,"target":{"node":4,"path":"translation"}},{"sampler":1,"target":{"node":4,"path":"rotation"}},{"sampler":2,"target":{"node":6,"path":"translation"}},{"sampler":3,"target":{"node":6,"path":"rotation"}},{"sampler":4,"target":{"node":8,"path":"translation"}},{"sampler":5,"target":{"node":8,"path":"rotation"}},{"sampler":6,"target":{"node":9,"path":"translation"}},{"sampler":7,"target":{"node":9,"path":"rotation"}},{"sampler":8,"target":{"node":11,"path":"translation"}},{"sampler":9,"target":{"node":11,"path":"rotation"}},{"sampler":10,"target":{"node":13,"path":"translation"}},{"sampler":11,"target":{"node":13,"path":"rotation"}}]},{"name":"Walk","samplers":[{"input":56,"output":57},{"input":56,"output":58},{"input":56,"output":59},{"input":56,"output":60},{"input":56,"output":61},{"input":56,"output":62},{"input":56,"output":63},{"input":56,"output":64},{"input":56,"output":65}],"channels":[{"sampler":0,"target":{"node":4,"path":"translation"}},{"sampler":1,"target":{"node":4,"path":"rotation"}},{"sampler":2,"target":{"node":6,"path":"translation"}},{"sampler":3,"target":{"node":6,"path":"rotation"}},{"sampler":4,"target":{"node":8,"path":"translation"}},{"sampler":5,"target":{"node":8,"path":"rotation"}},{"sampler":6,"target":{"node":9,"path":"translation"}},{"sampler":7,"target":{"node":11,"path":"rotation"}},{"sampler":8,"target":{"node":13,"path":"rotation"}}]}],"nodes":[{"mesh":0,"skin":0,"translation":[-1,-0.364299446,-0.91503644],"scale":[0.000122077763,0.000122077763,0.000122077763]},{"name":"RootNode","children":[2,15]},{"name":"EnemyArmature","rotation":[-0.707106829,0,0,0.707106709],"scale":[100,100,100],"children":[3]},{"name":"Root","rotation":[0.707106829,0,0,0.707106709],"children":[4,6,8]},{"name":"Leg.L","translation":[0.00268321065,0.00751728565,0.00092098309],"rotation":[1,-8.25510687e-15,-7.54979013e-08,-4.33125763e-07],"children":[5]},{"name":"Leg.L_end","translation":[1.58959609e-10,0.00690329727,-1.32403699e-10]},{"name":"Leg.R","translation":[-0.00268321065,0.00751728565,0.00092098309],"rotation":[1,9.74499209e-15,-7.54979013e-08,-1.94707184e-07],"children":[7]},{"name":"Leg.R_end","translation":[-4.37087255e-10,0.00690329773,-2.28705943e-11]},{"name":"Body","translation":[0,0.00726826303,1.42108544e-16],"children":[9,11,13]},{"name":"Head","translation":[2.72075695e-11,0.0103807999,0.00183837302],"children":[10]},{"name":"Head_end","translation":[-2.54879658e-17,0.00821894314,1.06904284e-10]},{"name":"Arm.L","translation":[0.00460353494,0.00973734912,6.37875253e-10],"rotation":[1.06287537e-07,-1.04047082e-07,0.995709777,-0.092531167],"children":[12]},{"name":"Arm.L_end","translation":[7.45055614e-11,0.0121356947,2.84217088e-16]},{"name":"Arm.R","translation":[-0.00460353494,0.00973734912,6.37875253e-10],"rotation":[-1.06287523e-07,-1.04047118e-07,0.995709777,0.092531167],"children":[14]},{"name":"Arm.R_end","translation":[-7.45055614e-11,0.0121356947,-5.2939558e-25]},{"name":"Goblin","rotation":[-0.707106829,8.0951991e-24,3.27853016e-22,0.707106709],"scale":[147.975937,147.975937,147.975937],"children":[0]}],"scenes":[{"name":"Root Scene","nodes":[1]}],"scene":0}